<svg xmlns="http://www.w3.org/2000/svg" viewBox="0 0 760 480" width="760" height="480" font-family="ui-sans-serif, system-ui, sans-serif" role="img" aria-label="On-chain instructions versus batch size N: the baseline of N standalone verifications crosses the 400M one-transaction budget around N=12 and becomes infeasible, while the aggregated Sincerin settle stays well inside the budget but grows sub-linearly."><rect x="0" y="0" width="760" height="480" fill="#ffffff"/><rect x="66" y="44" width="664" height="122" fill="rgba(197,55,31,0.07)"/><line x1="66" y1="410.0" x2="730" y2="410.0" stroke="#e6e6e6" stroke-width="1"/><text x="56" y="414.0" text-anchor="end" font-size="12" fill="#7a7a7a">0M</text><line x1="66" y1="349.0" x2="730" y2="349.0" stroke="#e6e6e6" stroke-width="1"/><text x="56" y="353.0" text-anchor="end" font-size="12" fill="#7a7a7a">100M</text><line x1="66" y1="288.0" x2="730" y2="288.0" stroke="#e6e6e6" stroke-width="1"/><text x="56" y="292.0" text-anchor="end" font-size="12" fill="#7a7a7a">200M</text><line x1="66" y1="227.0" x2="730" y2="227.0" stroke="#e6e6e6" stroke-width="1"/><text x="56" y="231.0" text-anchor="end" font-size="12" fill="#7a7a7a">300M</text><line x1="66" y1="166.0" x2="730" y2="166.0" stroke="#e6e6e6" stroke-width="1"/><text x="56" y="170.0" text-anchor="end" font-size="12" fill="#7a7a7a">400M</text><line x1="66" y1="105.0" x2="730" y2="105.0" stroke="#e6e6e6" stroke-width="1"/><text x="56" y="109.0" text-anchor="end" font-size="12" fill="#7a7a7a">500M</text><line x1="66" y1="44.0" x2="730" y2="44.0" stroke="#e6e6e6" stroke-width="1"/><text x="56" y="48.0" text-anchor="end" font-size="12" fill="#7a7a7a">600M</text><line x1="66" y1="44" x2="66" y2="410" stroke="#222222" stroke-width="1.5"/><line x1="66" y1="410" x2="730" y2="410" stroke="#222222" stroke-width="1.5"/><line x1="105.1" y1="410" x2="105.1" y2="415" stroke="#222222" stroke-width="1"/><text x="105.1" y="430" text-anchor="middle" font-size="12" fill="#7a7a7a">2</text><line x1="222.2" y1="410" x2="222.2" y2="415" stroke="#222222" stroke-width="1"/><text x="222.2" y="430" text-anchor="middle" font-size="12" fill="#7a7a7a">8</text><line x1="300.4" y1="410" x2="300.4" y2="415" stroke="#222222" stroke-width="1"/><text x="300.4" y="430" text-anchor="middle" font-size="12" fill="#7a7a7a">12</text><line x1="378.5" y1="410" x2="378.5" y2="415" stroke="#222222" stroke-width="1"/><text x="378.5" y="430" text-anchor="middle" font-size="12" fill="#7a7a7a">16</text><line x1="690.9" y1="410" x2="690.9" y2="415" stroke="#222222" stroke-width="1"/><text x="690.9" y="430" text-anchor="middle" font-size="12" fill="#7a7a7a">32</text><text x="398.0" y="464" text-anchor="middle" font-size="12.5" fill="#222222">batch size · N withdrawals</text><line x1="66" y1="166.0" x2="730" y2="166.0" stroke="#222222" stroke-width="1.5" stroke-dasharray="6 4"/><text x="726" y="158.0" text-anchor="end" font-size="12" font-weight="600" fill="#222222">400M · one-transaction budget</text><text x="80" y="66" font-size="12.5" fill="#c5371f" font-weight="600">Doesn’t fit in one transaction</text><line x1="66.0" y1="410.0" x2="289.2" y2="166.0" stroke="#222222" stroke-width="2.4"/><line x1="289.2" y1="166.0" x2="400.8" y2="44.0" stroke="#c5371f" stroke-width="2.4" stroke-dasharray="2 5"/><path d="M 400.8 52.0 l -4 8 l 8 0 z" fill="#c5371f"/><text x="410.8" y="58.0" font-size="11.5" fill="#c5371f">→ 1,120M at N=32</text><text x="183.2" y="260.6" font-size="12" fill="#222222" transform="rotate(-31 183.2 260.6)">baseline · N separate verifications</text><line x1="289.2" y1="166.0" x2="289.2" y2="410.0" stroke="#c5371f" stroke-width="1" stroke-dasharray="3 3"/><circle cx="289.2" cy="166.0" r="5" fill="#ffffff" stroke="#c5371f" stroke-width="2.4"/><text x="289.2" y="448.0" text-anchor="middle" font-size="13" font-weight="700" fill="#c5371f">N ≈ 12 — aggregation becomes the only way</text><line x1="105.1" y1="390.8" x2="222.2" y2="388.0" stroke="#222222" stroke-width="2.6"/><line x1="222.2" y1="388.0" x2="378.5" y2="383.3" stroke="#222222" stroke-width="2.6" stroke-dasharray="5 4"/><line x1="378.5" y1="383.3" x2="690.9" y2="375.8" stroke="#222222" stroke-width="2.6" stroke-dasharray="5 4"/><circle cx="105.1" cy="390.8" r="4.5" fill="#222222"/><circle cx="222.2" cy="388.0" r="4.5" fill="#222222"/><circle cx="378.5" cy="383.3" r="4.5" fill="#ffffff" stroke="#222222" stroke-width="2"/><circle cx="690.9" cy="375.8" r="4.5" fill="#ffffff" stroke="#222222" stroke-width="2"/><text x="690.9" y="363.8" text-anchor="end" font-size="12.5" font-weight="600" fill="#222222">aggregated · always fits, grows sub-linearly</text><circle cx="80" cy="48" r="4" fill="#222222"/><text x="90" y="52" font-size="11.5" fill="#7a7a7a">measured</text><circle cx="162" cy="48" r="4" fill="#ffffff" stroke="#222222" stroke-width="2"/><text x="172" y="52" font-size="11.5" fill="#7a7a7a">projected</text></svg>